<svg xmlns="http://www.w3.org/2000/svg" viewBox="0 0 600 800" width="600" height="800" font-family="Helvetica, Arial, sans-serif">
  <title>Illustration of a Gen 2 rapid charger on a parking bay</title>
  <defs>
    <linearGradient id="sky" x1="0" y1="0" x2="0" y2="1">
      <stop offset="0" stop-color="#cfe6f0"/><stop offset="1" stop-color="#f3efe0"/>
    </linearGradient>
    <linearGradient id="body" x1="0" y1="0" x2="1" y2="0">
      <stop offset="0" stop-color="#e4e7ea"/><stop offset="0.6" stop-color="#f4f5f6"/><stop offset="1" stop-color="#d5d9dd"/>
    </linearGradient>
    <linearGradient id="asphalt" x1="0" y1="0" x2="0" y2="1">
      <stop offset="0" stop-color="#55595e"/><stop offset="1" stop-color="#3b3e42"/>
    </linearGradient>
    <linearGradient id="kerb" x1="0" y1="0" x2="0" y2="1">
      <stop offset="0" stop-color="#d8d4ca"/><stop offset="0.35" stop-color="#bdb8ac"/><stop offset="1" stop-color="#8f8b82"/>
    </linearGradient>
    <radialGradient id="glow" cx="0.5" cy="0" r="0.8">
      <stop offset="0" stop-color="#fff6c8" stop-opacity="0.9"/><stop offset="1" stop-color="#fff6c8" stop-opacity="0"/>
    </radialGradient>
    <radialGradient id="vignette" cx="0.5" cy="0.5" r="0.75">
      <stop offset="0.7" stop-color="#000" stop-opacity="0"/><stop offset="1" stop-color="#000" stop-opacity="0.25"/>
    </radialGradient>
  </defs>

  <!-- sky, canopy and hedge -->
  <rect width="600" height="600" fill="url(#sky)"/>
  <rect x="0" y="0" width="600" height="36" fill="#3a3f45"/>
  <rect x="160" y="34" width="280" height="28" rx="6" fill="#f5f0dc" stroke="#2f3338" stroke-width="3"/>
  <polygon points="160,62 440,62 560,420 40,420" fill="url(#glow)"/>
  <g fill="#6f8f4e">
    <ellipse cx="40" cy="520" rx="90" ry="70"/><ellipse cx="170" cy="540" rx="80" ry="60"/>
    <ellipse cx="460" cy="535" rx="90" ry="62"/><ellipse cx="580" cy="515" rx="80" ry="72"/>
  </g>
  <g fill="#86a45f">
    <ellipse cx="90" cy="545" rx="60" ry="40"/><ellipse cx="520" cy="550" rx="70" ry="40"/>
  </g>
  <rect x="0" y="560" width="600" height="40" fill="#cdc8bb"/>

  <!-- kerb and bay -->
  <rect x="0" y="596" width="600" height="34" fill="url(#kerb)"/>
  <rect x="0" y="630" width="600" height="170" fill="url(#asphalt)"/>
  <clipPath id="zone"><path d="M150 660 L450 660 L470 790 L130 790 Z"/></clipPath>
  <g stroke="#e7c94a" stroke-width="6" opacity="0.9" clip-path="url(#zone)"><line x1="60" y1="790" x2="130" y2="660" /><line x1="86" y1="790" x2="156" y2="660" /><line x1="112" y1="790" x2="182" y2="660" /><line x1="138" y1="790" x2="208" y2="660" /><line x1="164" y1="790" x2="234" y2="660" /><line x1="190" y1="790" x2="260" y2="660" /><line x1="216" y1="790" x2="286" y2="660" /><line x1="242" y1="790" x2="312" y2="660" /><line x1="268" y1="790" x2="338" y2="660" /><line x1="294" y1="790" x2="364" y2="660" /><line x1="320" y1="790" x2="390" y2="660" /><line x1="346" y1="790" x2="416" y2="660" /><line x1="372" y1="790" x2="442" y2="660" /><line x1="398" y1="790" x2="468" y2="660" /><line x1="424" y1="790" x2="494" y2="660" /><line x1="450" y1="790" x2="520" y2="660" /><line x1="476" y1="790" x2="546" y2="660" /></g>
  <path d="M150 660 L450 660 L470 790 L130 790 Z" fill="none" stroke="#f1f1ee" stroke-width="6"/>
  <path d="M90 630 L60 800" stroke="#f1f1ee" stroke-width="8"/>
  <path d="M520 630 L548 800" stroke="#f1f1ee" stroke-width="8"/>

  <!-- bollards -->
  <g>
    <rect x="116" y="438" width="44" height="164" rx="20" fill="#2f5d50"/>
    <rect x="116" y="470" width="44" height="18" fill="#f4f1e6"/>
    <rect x="116" y="500" width="44" height="10" fill="#f4f1e6"/>
    <ellipse cx="138" cy="444" rx="20" ry="7" fill="#3f7465"/>
  </g>
  <g>
    <rect x="536" y="438" width="44" height="164" rx="20" fill="#2f5d50"/>
    <rect x="536" y="470" width="44" height="18" fill="#f4f1e6"/>
    <rect x="536" y="500" width="44" height="10" fill="#f4f1e6"/>
    <ellipse cx="558" cy="444" rx="20" ry="7" fill="#3f7465"/>
  </g>

  <!-- pedestal -->
  <rect x="226" y="584" width="182" height="18" fill="#7e8389"/>
  <rect x="400" y="128" width="16" height="460" fill="#aab0b6"/>
  <path d="M220 600 L220 150 Q220 118 252 118 L370 118 Q400 118 400 150 L400 600 Z" fill="url(#body)" stroke="#8c9298" stroke-width="2"/>
  <rect x="220" y="540" width="180" height="14" fill="#89d8ff"/>

  <!-- signage -->
  <rect x="232" y="132" width="156" height="46" rx="6" fill="#26323d"/>
  <text x="310" y="154" fill="#f2f2ee" font-size="15" font-weight="700" text-anchor="middle">RAPID 50 kW</text>
  <text x="310" y="171" fill="#9fd5ef" font-size="11" text-anchor="middle">Northway Charging · Gen 2</text>

  <!-- screen -->
  <rect x="248" y="194" width="124" height="98" rx="8" fill="#1d2329"/>
  <rect x="256" y="202" width="108" height="82" rx="4" fill="#2e6d8e"/>
  <text x="310" y="232" fill="#f2f8fb" font-size="11" text-anchor="middle">Tap card or</text>
  <text x="310" y="247" fill="#f2f8fb" font-size="11" text-anchor="middle">use the app</text>
  <rect x="270" y="258" width="80" height="16" rx="3" fill="#89d8ff" opacity="0.6"/>

  <!-- buttons -->
  <rect x="258" y="300" width="104" height="36" rx="18" fill="#cfd4d9"/>
  <circle cx="284" cy="318" r="13" fill="#3e9b5b" stroke="#2b6b3f" stroke-width="2"/>
  <circle cx="336" cy="318" r="13" fill="#5a6168" stroke="#3a4046" stroke-width="2"/>
  <text x="284" y="322" fill="#fff" font-size="9" text-anchor="middle">START</text>
  <text x="336" y="322" fill="#fff" font-size="9" text-anchor="middle">STOP</text>

  <!-- payment terminal -->
  <rect x="244" y="346" width="70" height="86" rx="6" fill="#2a2f35"/>
  <rect x="252" y="354" width="54" height="22" rx="2" fill="#9cb7a3"/>
  <rect x="256" y="384" width="12" height="9" rx="2" fill="#6b737b"/><rect x="273" y="384" width="12" height="9" rx="2" fill="#6b737b"/><rect x="290" y="384" width="12" height="9" rx="2" fill="#6b737b"/><rect x="256" y="398" width="12" height="9" rx="2" fill="#6b737b"/><rect x="273" y="398" width="12" height="9" rx="2" fill="#6b737b"/><rect x="290" y="398" width="12" height="9" rx="2" fill="#6b737b"/><rect x="256" y="412" width="12" height="9" rx="2" fill="#6b737b"/><rect x="273" y="412" width="12" height="9" rx="2" fill="#6b737b"/><rect x="290" y="412" width="12" height="9" rx="2" fill="#6b737b"/>

  <!-- card tap pad -->
  <rect x="322" y="350" width="54" height="56" rx="8" fill="#f8f6ef" stroke="#4b5259" stroke-width="2"/>
  <g fill="none" stroke="#4b5259" stroke-width="2.5" stroke-linecap="round">
    <path d="M343 368 q6 10 0 20"/><path d="M350 364 q9 14 0 28"/><path d="M357 360 q12 18 0 36"/>
  </g>

  <!-- socket -->
  <rect x="250" y="450" width="54" height="54" rx="8" fill="#3a4046"/>
  <circle cx="277" cy="477" r="18" fill="#1c2024" stroke="#8a9198" stroke-width="2"/>
  <circle cx="270" cy="471" r="3" fill="#8a9198"/><circle cx="284" cy="471" r="3" fill="#8a9198"/><circle cx="277" cy="479" r="3" fill="#8a9198"/><circle cx="269" cy="484" r="3" fill="#8a9198"/><circle cx="285" cy="484" r="3" fill="#8a9198"/>

  <!-- emergency stop -->
  <rect x="328" y="444" width="46" height="46" rx="6" fill="#ffd21f" stroke="#a58a10" stroke-width="2"/>
  <circle cx="351" cy="467" r="15" fill="#d6261f" stroke="#8f1813" stroke-width="2"/>

  <!-- cable support arm and retractor -->
  <rect x="384" y="58" width="18" height="74" fill="#5b6470"/>
  <rect x="384" y="58" width="140" height="18" rx="4" fill="#5b6470"/>
  <rect x="484" y="72" width="40" height="42" rx="6" fill="#3d444d"/>
  <circle cx="504" cy="93" r="10" fill="#89d8ff" stroke="#2c3238" stroke-width="2"/>

  <!-- cable -->
  <path d="M502.0 112.0 L502.9 128.3 L503.5 144.6 L503.9 160.8 L504.0 176.8 L503.8 192.7 L503.4 208.4 L502.8 223.9 L502.0 239.2 L500.9 254.2 L499.7 268.8 L498.2 283.2 L496.6 297.1 L494.8 310.7 L492.9 323.8 L490.9 336.5 L488.7 348.6 L486.3 360.3 L483.9 371.4 L481.4 381.9 L478.8 391.8 L476.0 401.0 L473.3 409.5 L470.5 417.4 L467.6 424.5 L464.7 430.8 L461.7 436.3 L458.8 441.0 L455.8 444.8 L452.9 447.8 L450.0 449.8 L447.1 450.8 L444.2 450.9 L441.4 449.9 L438.6 447.9 L436.0 444.8 L433.4 440.6 L430.9 435.2 L428.5 428.7 L426.2 421.0 L424.0 412.0" fill="none" stroke="#151719" stroke-width="20" stroke-linecap="round"/>
  <path d="M502.0 112.0 L502.9 128.3 L503.5 144.6 L503.9 160.8 L504.0 176.8 L503.8 192.7 L503.4 208.4 L502.8 223.9 L502.0 239.2 L500.9 254.2 L499.7 268.8 L498.2 283.2 L496.6 297.1 L494.8 310.7 L492.9 323.8 L490.9 336.5 L488.7 348.6 L486.3 360.3 L483.9 371.4 L481.4 381.9 L478.8 391.8 L476.0 401.0 L473.3 409.5 L470.5 417.4 L467.6 424.5 L464.7 430.8 L461.7 436.3 L458.8 441.0 L455.8 444.8 L452.9 447.8 L450.0 449.8 L447.1 450.8 L444.2 450.9 L441.4 449.9 L438.6 447.9 L436.0 444.8 L433.4 440.6 L430.9 435.2 L428.5 428.7 L426.2 421.0 L424.0 412.0" fill="none" stroke="#33373b" stroke-width="10" stroke-linecap="round"/>

  <!-- holster -->
  <rect x="398" y="404" width="52" height="66" rx="8" fill="#4d555d" stroke="#2c3238" stroke-width="2"/>
  <rect x="406" y="410" width="36" height="42" rx="5" fill="#2a2f34"/>

  <!-- connector (plug) -->
  <rect x="406" y="352" width="36" height="62" rx="12" fill="#2b2f33"/>
  <rect x="412" y="360" width="24" height="20" rx="6" fill="#4a5158"/>
  <rect x="416" y="386" width="16" height="18" rx="4" fill="#ff7a45"/>

  <rect width="600" height="800" fill="url(#vignette)"/>
</svg>
